PathFileType	4	(X/Y/Z)	C:/Users/beibeiliu/ov580/test_trc/User2\sequence.10_training_dense_right.trc
DataRate	CameraRate	NumFrames	NumMarkers	Units	OrigDataRate	OrigDataStartFrame	OrigNumFrames
120	120	22	19	mm	120	62	122
Frame#	Time	ThumbCMC			ThumbMCP			ThumbIP			ThumbTip			IndexMCP			IndexPIP			IndexTip			MiddleMCP			MiddlePIP			MiddleTip			RingMCP			RingPIP			RingTip			PinkyMCP			PinkyPIP			PinkyTip			BackHand1			BackHand2			BackHand3	
		X0	Y0	Z0	X1	Y1	Z1	X2	Y2	Z2	X3	Y3	Z3	X4	Y4	Z4	X5	Y5	Z5	X6	Y6	Z6	X7	Y7	Z7	X8	Y8	Z8	X9	Y9	Z9	X10	Y10	Z10	X11	Y11	Z11	X12	Y12	Z12	X13	Y13	Z13	X14	Y14	Z14	X15	Y15	Z15	X16	Y16	Z16	X17	Y17	Z17	X18	Y18	Z18	
61	0.508333	169.069	71.4645	-21.8747	161.858	107.115	-31.8187	136.065	128.697	-49.9899	107.983	119.812	-54.3929	135.728	61.538	-93.7976	113.752	72.3207	-118.349	99.0901	90.8313	-132.503	105.365	60.5376	-91.029	88.8388	95.5753	-100.542	90.8765	120.758	-71.1356	90.6009	50.3727	-85.2123	72.7464	68.7137	-99.5981	61.8798	101.882	-95.4342	75.7877	38.8831	-60.9786	55.6769	45.3169	-75.2192	36.3642	58.5599	-96.7369	116.126	24.8082	-39.2804	130.363	10.1454	-11.7046	157.811	31.6472	-36.6012	
62	0.516667	173.328	64.2084	-25.9065	161.753	97.0165	-39.0719	133.669	115.97	-59.5686	106.93	105.276	-62.3563	135.412	47.6408	-96.0631	117.942	52.9872	-119.372	99.6878	66.6534	-141.908	104.229	48.1142	-99.2484	87.4452	78.8533	-104.788	88.7239	106.452	-73.0916	89.8443	36.2285	-84.9494	72.13	56.0452	-105.669	54.3572	84.4721	-110.857	78.4145	23.5762	-59.6594	59.6425	27.2777	-81.0609	42.7913	30.394	-101.359	123.07	13.7817	-39.7297	135.424	-0.100601	-11.4052	158.594	24.1127	-39.6044	
63	0.525	170.179	59.0136	-30.357	154.472	87.7004	-45.4005	128.109	103.222	-65.7911	99.5967	84.6472	-71.2361	140.039	32.6922	-101.368	128.416	36.0043	-131.07	105.196	38.7948	-149.764	110.233	29.0856	-102.071	87.5367	54.1651	-111.05	82.6315	85.3419	-79.0606	95.8505	15.8755	-90.6832	75.4974	27.8048	-109.999	56.644	46.9039	-123.568	86.3681	2.10925	-67.3873	72.4795	2.97972	-87.1216	57.1879	-4.91262	-106.819	129.861	-1.82203	-47.5448	144.412	-9.60666	-14.2547	165.527	17.2805	-42.4534	
64	0.533333	166.424	57.8283	-24.212	144.293	85.4099	-47.9494	117.898	94.325	-66.7518	96.7192	69.0149	-77.4559	156.203	32.5211	-104.279	143.315	31.1349	-135.992	126.312	28.1478	-157.301	126.919	21.4723	-109.587	95.038	37.9124	-117.205	83.319	65.1317	-90.9885	113.488	1.87104	-99.5512	90.4485	7.14824	-123.013	74.8156	19.7185	-137.717	106.617	-13.6252	-78.9216	93.7439	-19.1169	-100.522	85.7173	-29.3988	-118.638	143.483	-9.04504	-51.1506	157.247	-14.5483	-17.9801	173.086	16.5422	-39.8284	
65	0.541667	155.683	61.813	-22.2274	128.324	75.3469	-43.2364	104.012	77.7636	-68.8064	93.9497	52.1186	-82.8501	167.827	41.9508	-101.947	159.995	36.9981	-133.107	152.624	35.141	-156.613	146.052	17.4088	-114.65	114.269	25.3291	-124.638	90.4397	40.6555	-98.6596	143.655	-0.512186	-108.705	127.31	-0.398105	-131.491	106.532	4.85455	-152.787	142.23	-21.3114	-89.2599	136.288	-29.9901	-114.276	136.812	-34.0827	-133.926	168.234	-6.21119	-50.1575	176.895	-7.24036	-17.0093	183.499	25.6333	-39.1157	
66	0.55	140.081	56.1252	-20.1664	112.426	56.7291	-43.5152	94.1655	50.5547	-77.2071	101.26	26.071	-91.96	171.183	54.8033	-100.312	170.506	58.5579	-126.047	168.622	55.4536	-157.486	166.857	29.6125	-110.729	135.058	20.8327	-129.107	105.181	14.4431	-100.294	174.424	7.79605	-112.199	162.76	4.17305	-138.274	147.227	3.98742	-159.294	182.588	-12.0935	-89.5239	185.512	-15.2286	-112.252	194.549	-20.0123	-138.052	190.882	5.89449	-51.9753	193.036	4.08343	-17.3318	182.829	40.2391	-29.9219	
67	0.558333	125.753	43.7349	-19.5164	104.995	35.0102	-48.7765	99.9868	24.8883	-83.5664	113.76	10.7175	-101.908	164.104	69.8876	-92.5863	163.925	76.7468	-120.456	168.901	76.4855	-148.511	169.695	48.1025	-109.433	152.684	25.781	-128.925	129.563	1.84157	-107.08	193.744	33.0466	-101.724	189.083	31.1233	-130.726	179.271	25.1123	-158.719	208.902	14.4542	-81.2601	219.807	23.8488	-107.094	232.243	26.9899	-124.612	196.965	29.3697	-41.8543	199.807	22.4323	-8.26172	170.898	54.4355	-24.7924	
68	0.566667	118.542	39.7481	-19.2602	102.564	30.5193	-48.5582	96.8741	23.2158	-87.2254	120.843	17.7277	-106.556	151.834	84.6214	-82.7771	155.274	94.0205	-109.437	155.456	101.113	-137.446	168.74	66.6162	-103.914	156.907	42.42	-124.504	140.201	10.785	-105.615	194.34	62.1203	-94.8414	191.083	63.9429	-122.862	185.331	60.6024	-155.292	210.319	46.7952	-72.8005	220.203	57.6624	-90.6793	236.196	74.0315	-108.97	189.839	51.1347	-34.1938	192.495	41.5754	-5.19419	162.18	62.3047	-18.9531	
69	0.575	111.727	46.3829	-18.3133	93.1054	37.5604	-45.6848	92.1884	34.1874	-85.4044	112.306	29.7175	-102.191	133.275	100.848	-78.0416	135.264	110.444	-102.571	137.181	117.286	-129.015	151.845	82.4675	-94.8783	141.405	57.6529	-119.254	134.471	21.9142	-99.6384	179.069	80.4781	-86.4645	176.129	83.9648	-114.866	175.902	79.9697	-147.756	196.95	67.4079	-68.4508	211.776	76.0652	-82.9444	223.413	92.6161	-97.0159	180.234	65.5719	-31.218	176.813	53.2707	3.09468	144.246	69.4958	-9.48765	
70	0.583333	98.5366	40.8886	-12.7639	79.8167	33.8119	-44.0051	75.0034	29.6747	-81.3449	98.9315	28.0224	-100.923	119.51	96.2233	-77.7003	116.564	106.613	-101.568	116.049	114.645	-131.531	138.272	77.7858	-93.226	123.873	55.1787	-117.158	119.092	19.4653	-97.7508	159.177	77.5593	-86.9135	157.995	81.0109	-114.877	152.147	78.6553	-145.465	181.462	65.9101	-68.95	194.717	78.0831	-86.887	201.747	92.7293	-96.8768	165.365	62.523	-32.4808	165.546	52.449	-1.04378	132.916	69.7055	-9.68344	
71	0.591667	86.8021	29.4774	-13.8746	64.0015	19.7439	-41.317	67.3755	13.9652	-79.0662	88.6451	11.3571	-100.764	103.461	79.3771	-79.118	104.362	87.5987	-107.734	100.515	94.2174	-131.547	119.755	61.5685	-98.6801	110.543	36.0075	-119.127	101.467	3.05352	-92.3324	145.75	60.939	-93.2818	146.983	59.2937	-120.117	137.874	56.5168	-152.633	168.801	47.4371	-72.3473	176.304	60.8061	-90.5229	186.824	74.6851	-103.761	154.266	50.8763	-31.9812	154.377	40.3723	1.324	120.229	54.052	-10.309	
72	0.6	79.3564	17.7034	-11.2813	57.7179	5.76645	-42.9685	58.2699	-3.96277	-77.5432	79.6436	-8.60363	-96.6366	95.0509	61.667	-81.4988	92.6251	70.5261	-113.33	91.9985	74.1911	-140.096	111.808	43.7928	-101.12	104.405	13.7372	-120.35	94.5765	-13.464	-94.984	135.845	44.2922	-95.2204	132.025	40.6097	-126.145	129.839	30.3715	-154.879	157.368	33.5654	-75.3481	167.449	46.3229	-99.5606	180.744	60.4166	-112.348	144.433	40.2685	-35.6971	148.112	34.6795	-6.75327	109.046	47.1469	-17.8715	
73	0.608333	72.0255	12.2159	-14.6301	47.4755	-5.85412	-38.2141	49.8394	-19.8536	-71.454	68.9818	-25.1844	-91.7614	84.9924	49.5043	-86.4591	78.9642	55.1278	-114.519	80.3213	57.4052	-140.618	103.007	29.0758	-102.868	96.2002	-0.113247	-119.851	87.2578	-29.5692	-93.576	127.03	28.9515	-97.5974	127.829	20.1674	-128.965	119.822	5.65158	-154.527	151.695	20.3199	-78.1065	163.075	28.399	-101.555	172.399	43.0392	-119.98	134.253	31.0911	-40.6941	139.594	28.4736	-5.92972	102.734	38.9383	-17.7568	
74	0.616667	67.6262	13.3721	-9.94921	44.0511	-4.44339	-33.3217	38.9151	-22.5596	-61.1847	58.5749	-32.6163	-81.0406	79.3979	40.5999	-87.6126	74.8735	44.3879	-117.44	76.8346	42.1013	-143.085	94.776	16.4358	-102.345	85.342	-16.28	-115.178	76.806	-41.1205	-87.7603	120.203	14.471	-97.8211	115.101	-1.37561	-129.261	105.524	-16.5662	-147.475	143.753	6.99972	-78.58	153.245	11.5311	-106.075	159.215	19.4484	-127.562	132.554	23.4603	-43.5141	136.817	25.3069	-6.9337	100.615	39.0032	-23.3213	
75	0.625	66.3075	29.1729	-5.79849	35.5963	16.1355	-20.8188	21.6736	-3.93963	-46.8011	38.0075	-23.0574	-71.3408	76.7094	40.1521	-88.7602	70.8845	40.2241	-115.643	66.1419	38.8799	-141.967	84.1161	14.469	-96.4511	60.8622	-16.2906	-107.178	49.1421	-35.4231	-72.1461	105.627	0.449943	-99.9054	93.6568	-10.8013	-119.695	73.6622	-31.9886	-135.26	128.623	-9.50628	-76.7478	133.099	-12.9667	-101.461	139.181	-10.818	-128.036	128.487	14.4462	-43.9793	136.522	19.0638	-9.92932	103.824	43.35	-24.3948	
76	0.633333	75.7907	53.8573	0.0470462	38.3336	53.4856	-15.3868	14.7424	38.2954	-33.6715	15.9983	12.1944	-52.722	77.954	47.6353	-82.1189	65.7341	51.9741	-109.709	56.4153	43.877	-139.487	68.5605	22.0006	-91.3085	34.703	4.08415	-94.5895	18.3962	-1.07876	-60.3039	81.7654	2.69003	-88.8719	58.6632	-8.93221	-110.503	31.2933	-17.3433	-117.02	98.0511	-15.3646	-71.2846	95.3892	-22.8523	-95.0807	95.4746	-24.7049	-122.387	116.179	9.78075	-37.0623	133.348	10.5328	-14.106	113.12	44.2047	-20.9163	
77	0.641667	90.9434	76.5949	-0.448763	58.0881	90.4334	-6.30993	25.3265	88.7461	-21.2809	10.5628	61.7896	-33.2596	71.4007	63.888	-83.1113	56.2445	64.4054	-105.384	40.4153	59.6717	-128.274	48.8256	39.2385	-80.8407	13.9175	45.4785	-78.6473	-0.74887	48.6475	-40.9099	47.7102	12.792	-78.465	24.7687	17.6878	-89.7894	-4.23038	22.8218	-94.6415	58.3956	-8.28595	-56.7631	45.5458	-14.9688	-79.0337	37.9876	-21.478	-102.936	93.3986	12.1907	-34.2828	113.105	6.81294	-10.4385	110.544	42.9054	-24.5554	
78	0.65	106.855	81.8149	-3.72103	81.2375	109.548	-8.53038	42.5516	116.737	-23.6597	24.5534	90.8007	-26.133	70.2132	67.3961	-77.4522	55.3	74.8471	-103.306	33.9193	74.6268	-122.915	43.8464	54.4321	-72.5986	8.63928	70.6602	-68.2246	2.34159	89.0042	-34.048	30.6461	33.018	-65.2074	4.56136	41.0005	-75.9716	-19.5365	57.1569	-80.557	33.0168	11.1968	-47.1261	17.0762	6.96034	-60.2526	6.0339	3.00244	-81.6617	81.2805	17.6108	-29.8542	104.268	10.1841	-6.37018	107.666	42.1576	-26.7674	
79	0.658333	118.059	80.0615	-10.2655	101.468	112.738	-18.5168	71.1651	125.657	-25.7686	44.2292	109.663	-29.3145	76.4861	71.707	-84.7103	58.166	76.8222	-106.296	42.8029	87.2349	-125.439	47.9277	65.9836	-73.9775	20.4985	91.3454	-70.6871	22.2089	116.314	-35.0645	34.0601	49.6271	-62.0389	8.8753	64.2678	-74.9611	-13.8025	84.3244	-81.7855	26.1821	27.7447	-40.7526	10.2544	31.5425	-56.4622	-7.98883	22.6126	-72.4206	76.6532	22.6864	-26.4518	96.0768	12.5963	-6.07401	110.298	40.2522	-26.1624	
80	0.666667	131.896	72.6764	-15.0459	119.062	108.496	-28.7454	92.1467	127.66	-39.2717	61.095	120.21	-42.1125	86.2068	64.5542	-88.6841	74.1967	75.1953	-112.108	57.3528	86.0876	-131.589	57.6821	67.9369	-79.4559	36.6762	98.4344	-79.0502	44.0959	124.885	-50.6385	42.6122	54.8336	-67.0444	24.1444	72.6156	-80.6253	6.20666	95.08	-92.9706	34.1076	39.7578	-44.0749	11.9658	41.6446	-58.9346	-6.46507	38.537	-76.1255	79.8657	25.6534	-27.695	94.6667	13.5235	-3.64511	115.53	35.0378	-27.5444	
81	0.675	142.8	64.7758	-20.2042	134.82	98.8527	-35.4936	111.441	120.738	-51.6035	82.0978	112.651	-52.0566	103.966	55.6029	-96.0641	91.4991	65.5052	-119.883	76.3168	76.7991	-142.395	69.7664	59.8246	-89.6575	55.6467	94.5938	-90.7637	65.8044	120.421	-65.8114	53.6466	50.9688	-76.6347	39.8099	69.8074	-94.8538	22.4845	91.2487	-106.387	43.1009	38.4466	-51.9578	23.4675	40.3847	-67.0619	9.10038	37.4536	-84.9337	86.6814	21.7686	-28.713	96.9824	8.2721	-2.72435	119.999	25.1481	-29.8446	
82	0.683333	155.619	53.9583	-28.4206	147.554	85.1284	-46.2691	123.942	104.346	-65.9876	95.5641	100.342	-69.3499	115.491	36.8974	-103.305	107.742	44.6407	-127.155	94.2712	56.114	-147.452	89.63	41.4212	-99.1394	78.2071	72.4428	-111.49	83.2792	105.992	-82.5057	69.2642	36.4025	-88.7591	56.9998	54.2857	-108.791	45.2028	73.4868	-122.331	58.4593	26.5479	-59.916	37.8252	27.484	-78.9284	25.7371	25.0037	-97.6767	93.453	10.9428	-38.6135	106.169	0.234556	-10.4157	131.218	14.2163	-36.3497	
